<svg xmlns="http://www.w3.org/2000/svg" viewBox="0 0 1200 800" width="1200" height="800" role="img">
<defs>
<linearGradient id="sky" x1="0" y1="0" x2="0" y2="1"><stop offset="0%" stop-color="#020617"/><stop offset="100%" stop-color="#1e3a8a"/></linearGradient>
<radialGradient id="glow"><stop offset="0%" stop-color="#e2e8f0" stop-opacity=".85"/><stop offset="100%" stop-color="#e2e8f0" stop-opacity="0"/></radialGradient>
</defs>
<rect width="1200" height="800" fill="url(#sky)"/>
<circle cx="747" cy="301" r="1" fill="#fff" opacity="0.49"/>
<circle cx="121" cy="149" r="2" fill="#fff" opacity="0.55"/>
<circle cx="147" cy="193" r="1" fill="#fff" opacity="0.39"/>
<circle cx="964" cy="323" r="1" fill="#fff" opacity="0.34"/>
<circle cx="1076" cy="296" r="1.5" fill="#fff" opacity="0.44"/>
<circle cx="507" cy="107" r="1.5" fill="#fff" opacity="0.42"/>
<circle cx="752" cy="13" r="1" fill="#fff" opacity="0.55"/>
<circle cx="564" cy="378" r="1" fill="#fff" opacity="0.49"/>
<circle cx="1122" cy="173" r="1.5" fill="#fff" opacity="0.44"/>
<circle cx="957" cy="142" r="1.5" fill="#fff" opacity="0.47"/>
<circle cx="426" cy="22" r="1" fill="#fff" opacity="0.29"/>
<circle cx="616" cy="373" r="1" fill="#fff" opacity="0.47"/>
<circle cx="500" cy="148" r="2" fill="#fff" opacity="0.13"/>
<circle cx="55" cy="168" r="1" fill="#fff" opacity="0.48"/>
<circle cx="981" cy="359" r="1" fill="#fff" opacity="0.40"/>
<circle cx="827" cy="326" r="1" fill="#fff" opacity="0.14"/>
<circle cx="176" cy="377" r="1.5" fill="#fff" opacity="0.47"/>
<circle cx="1014" cy="385" r="2" fill="#fff" opacity="0.52"/>
<circle cx="882" cy="285" r="2" fill="#fff" opacity="0.19"/>
<circle cx="607" cy="247" r="1.5" fill="#fff" opacity="0.36"/>
<circle cx="1172" cy="64" r="1" fill="#fff" opacity="0.14"/>
<circle cx="162" cy="89" r="2" fill="#fff" opacity="0.54"/>
<circle cx="146" cy="134" r="2" fill="#fff" opacity="0.13"/>
<circle cx="1110" cy="48" r="2" fill="#fff" opacity="0.34"/>
<circle cx="97" cy="87" r="2" fill="#fff" opacity="0.22"/>
<circle cx="384" cy="227" r="1.5" fill="#fff" opacity="0.26"/>
<circle cx="475" cy="393" r="1" fill="#fff" opacity="0.15"/>
<circle cx="377" cy="329" r="1.5" fill="#fff" opacity="0.49"/>
<circle cx="612" cy="141" r="1.5" fill="#fff" opacity="0.46"/>
<circle cx="299" cy="252" r="1.5" fill="#fff" opacity="0.14"/>
<circle cx="752" cy="209" r="1.5" fill="#fff" opacity="0.18"/>
<circle cx="423" cy="263" r="1" fill="#fff" opacity="0.13"/>
<circle cx="409" cy="391" r="1.5" fill="#fff" opacity="0.49"/>
<circle cx="1134" cy="201" r="1" fill="#fff" opacity="0.40"/>
<circle cx="873" cy="227" r="1" fill="#fff" opacity="0.43"/>
<circle cx="1107" cy="65" r="1" fill="#fff" opacity="0.12"/>
<circle cx="185" cy="208" r="2" fill="#fff" opacity="0.43"/>
<circle cx="451" cy="364" r="2" fill="#fff" opacity="0.54"/>
<circle cx="206" cy="394" r="2" fill="#fff" opacity="0.19"/>
<circle cx="563" cy="419" r="1" fill="#fff" opacity="0.19"/>
<circle cx="693" cy="326" r="2" fill="#fff" opacity="0.48"/>
<circle cx="1109" cy="351" r="2" fill="#fff" opacity="0.34"/>
<circle cx="219" cy="40" r="2" fill="#fff" opacity="0.52"/>
<circle cx="940" cy="78" r="1" fill="#fff" opacity="0.40"/>
<circle cx="749" cy="147" r="1" fill="#fff" opacity="0.21"/>
<circle cx="57" cy="158" r="1" fill="#fff" opacity="0.43"/>
<circle cx="348" cy="30" r="1.5" fill="#fff" opacity="0.39"/>
<circle cx="840" cy="250" r="1" fill="#fff" opacity="0.37"/>
<circle cx="571" cy="86" r="1" fill="#fff" opacity="0.30"/>
<circle cx="817" cy="344" r="1" fill="#fff" opacity="0.54"/>
<circle cx="57" cy="314" r="1.5" fill="#fff" opacity="0.47"/>
<circle cx="975" cy="398" r="1" fill="#fff" opacity="0.24"/>
<circle cx="945" cy="171" r="1" fill="#fff" opacity="0.51"/>
<circle cx="96" cy="332" r="2" fill="#fff" opacity="0.17"/>
<circle cx="1023" cy="141" r="1.5" fill="#fff" opacity="0.35"/>
<circle cx="418" cy="160" r="2" fill="#fff" opacity="0.39"/>
<circle cx="1111" cy="214" r="1.5" fill="#fff" opacity="0.20"/>
<circle cx="1108" cy="28" r="1" fill="#fff" opacity="0.32"/>
<circle cx="346" cy="252" r="1" fill="#fff" opacity="0.47"/>
<circle cx="970" cy="165" r="1.5" fill="#fff" opacity="0.13"/>
<circle cx="259" cy="271" r="237" fill="url(#glow)"/>
<circle cx="259" cy="271" r="79" fill="#e2e8f0"/>
<path d="M -40,437 Q -10,437 20,363 Q 50,363 80,296 Q 110,296 140,438 Q 170,438 200,339 Q 230,339 260,406 Q 290,406 320,270 Q 350,270 380,294 Q 410,294 440,438 Q 470,438 500,411 Q 530,411 560,268 Q 590,268 620,349 Q 650,349 680,341 Q 710,341 740,305 Q 770,305 800,282 Q 830,282 860,321 Q 890,321 920,290 Q 950,290 980,298 Q 1010,298 1040,420 Q 1070,420 1100,328 Q 1130,328 1160,317 Q 1190,317 1220,336 L 1240,840 L -40,840 Z" fill="#020617" opacity="0.82"/>
<path d="M -40,485 Q -10,485 20,383 Q 50,383 80,471 Q 110,471 140,395 Q 170,395 200,461 Q 230,461 260,403 Q 290,403 320,441 Q 350,441 380,442 Q 410,442 440,351 Q 470,351 500,456 Q 530,456 560,373 Q 590,373 620,426 Q 650,426 680,474 Q 710,474 740,445 Q 770,445 800,463 Q 830,463 860,394 Q 890,394 920,423 Q 950,423 980,378 Q 1010,378 1040,424 Q 1070,424 1100,372 Q 1130,372 1160,489 Q 1190,489 1220,392 L 1240,840 L -40,840 Z" fill="#0b1220" opacity="0.87"/>
<path d="M -40,568 Q -10,568 20,568 Q 50,568 80,554 Q 110,554 140,576 Q 170,576 200,556 Q 230,556 260,556 Q 290,556 320,518 Q 350,518 380,515 Q 410,515 440,574 Q 470,574 500,510 Q 530,510 560,580 Q 590,580 620,564 Q 650,564 680,542 Q 710,542 740,591 Q 770,591 800,545 Q 830,545 860,549 Q 890,549 920,595 Q 950,595 980,556 Q 1010,556 1040,561 Q 1070,561 1100,499 Q 1130,499 1160,574 Q 1190,574 1220,535 L 1240,840 L -40,840 Z" fill="#111c33" opacity="0.92"/>
<path d="M -40,646 Q -10,646 20,698 Q 50,698 80,693 Q 110,693 140,651 Q 170,651 200,645 Q 230,645 260,727 Q 290,727 320,679 Q 350,679 380,669 Q 410,669 440,702 Q 470,702 500,726 Q 530,726 560,670 Q 590,670 620,728 Q 650,728 680,670 Q 710,670 740,728 Q 770,728 800,706 Q 830,706 860,653 Q 890,653 920,725 Q 950,725 980,652 Q 1010,652 1040,650 Q 1070,650 1100,695 Q 1130,695 1160,730 Q 1190,730 1220,644 L 1240,840 L -40,840 Z" fill="#1b2b4a" opacity="0.97"/>
</svg>